<svg id="Layer_1" data-name="Layer 1" xmlns="http://www.w3.org/2000/svg" viewBox="0 0 669.73 658.1"><defs><style>.cls-1{fill:#c2c9e5;}.cls-2{fill:#7560a7;}.cls-3{fill:#fff;}</style></defs><path class="cls-1" d="M245.34,546.09l41.15-120.9h62.44c0,15.57,11.76,27.17,28.12,27.17H474s22.09,75,33.84,94c7.63,12.39,19.39,20.18,34.8,20.18h0c23.83,0,41.78-19.7,54.81-48.14,15.89-34.64,24.94-75.79,26.69-116.14H278.55a11.59,11.59,0,0,0-11,7.94L223.74,538.78Zm178.58,60.22a51.8,51.8,0,1,1,51.79,51.79,45.9,45.9,0,0,1-9.53-1l11.76-25.26c.47,0,1.11.16,1.59.16a22,22,0,1,0-15.73-6.67l-12.55,26.69A52.3,52.3,0,0,1,423.92,606.31Z" transform="translate(-223.74)"/><path class="cls-1" d="M347.85,267.31,365.6,389.14H585.82l17.75-121.83Zm127.86,71.43c-9.13,0-16.53-4.86-16.53-10.86S466.58,317,475.71,317s16.54,4.87,16.54,10.87S484.84,338.74,475.71,338.74ZM643,367H601.68L618,254.81H333.39L349.74,367H308.39a32.83,32.83,0,0,1-30.15-45.81L336.72,185.4a71.92,71.92,0,0,1,66-43.47h23l36.36,54.12,7.41-35.36-12.4-18.76h37.32l-12.41,18.76,7.39,35.11,36.2-53.87h23a71.92,71.92,0,0,1,66.05,43.47l58.47,135.82A32.83,32.83,0,0,1,643,367ZM475.71,0A64.72,64.72,0,1,1,411,64.71,64.72,64.72,0,0,1,475.71,0Z" transform="translate(-223.74)"/><g id="Layer_2" data-name="Layer 2"><path class="cls-2" d="M654,403.76l-384.51-.21s-18.32.37-23.55-5.36,10.19-9.29,10.19-9.29l400.74-5.13s-6.69,1.68-7.09,8S654,403.76,654,403.76Z" transform="translate(-223.74)"/><path class="cls-3" d="M677.73,394.49c-1.72,8.5,4,12.29,5.12,12.92l11.83-.27A28.81,28.81,0,0,1,692,401a14.38,14.38,0,0,1-.05-7.71l-13.82-.4C678,393.4,677.84,393.93,677.73,394.49Z" transform="translate(-223.74)"/><rect class="cls-3" x="868.4" y="388.76" width="6.01" height="34.22" transform="matrix(0.01, -1, 1, 0.01, 236.78, 1274.93)"/><path class="cls-3" d="M683.05,382.82a13.15,13.15,0,0,0-3.21,4.8l13.86.19a48.73,48.73,0,0,1,2.51-5.1Z" transform="translate(-223.74)"/><path class="cls-3" d="M717.26,386.36a7.59,7.59,0,1,0,5.46-2A7.56,7.56,0,0,0,717.26,386.36Zm8.59,9.42a5.86,5.86,0,1,1,.38-8.27A5.86,5.86,0,0,1,725.85,395.78Z" transform="translate(-223.74)"/><path class="cls-3" d="M880.68,378.7s-4.37,2-7.91.83a21.68,21.68,0,0,1-5.6-2.74l-10.61.19-2.66,3.66-143.79-.57-3,2.05-3.34,0L700.41,380,682.23,380s-5.12,2.56-7.9,2.64-6.07-2.69-6.07-2.69l-8.89,0s-9.49,1.52-10.08,14.3,9.28,15.26,9.28,15.26l7.14,0s4.86-3.41,7.74-3.38,8.14,4,8.14,4l17.43.07,4-1.48h3.85l3.72,2.71L816,411.8l.21-6.57-6.35-.16-.35-9,7,0,.4-12.79.86,0-.29,12.76,12,0,.07-11.89,1.77,0L831,396.12l20.85.05-.17,10-20.91-.53-.16,6.26h-.37l23.25.09-.28,1.89,3.58,3.92,10.09,0s5.12-3.36,9-3.35,8.94,2.64,8.94,2.64l4-2.31-.18-3.76h-.35a22.52,22.52,0,0,0,5.17-13.58,23.49,23.49,0,0,0-3.8-13.43l-1.13-2.53-1.84-3.09ZM705.44,393.87l-4.8-.33-7.15-.2a13.21,13.21,0,0,0-.07,7.16c2.05,6,3.22,6.61,3.27,6.64a.53.53,0,0,0-.22,0l0,1.56h0l-14,.32-.18-.09c-.08,0-8.19-4.36-6.09-14.71.09-.46.19-.9.3-1.33l-25.39-.73c-1.65-1.36.65-4.89.65-4.89l26.39.37c2-4.72,4.1-6.12,4.22-6.2l.19-.11,16.41-.15-.75,1.21a47,47,0,0,0-2.84,5.5l6.26.09,4.5-.22Zm25.07-1.53a8.15,8.15,0,1,1-7.77-8.51A8.14,8.14,0,0,1,730.51,392.34Zm24.25,17.15S752,402,752.34,395.24A55.62,55.62,0,0,1,754.8,382h3.3s-.87,9.3-1.11,14.34a82.72,82.72,0,0,0,1.08,13.12Zm8-.24s-2.74-7.45-2.42-14.25a55.9,55.9,0,0,1,2.45-13.21h3.31s-.88,9.3-1.11,14.34,1.07,13.12,1.07,13.12Zm7.5-.07s-2.73-7.45-2.42-14.25a55.76,55.76,0,0,1,2.46-13.21h3.3s-.87,9.3-1.11,14.33,1.08,13.13,1.08,13.13Zm7.59.23s-2.74-7.45-2.42-14.26a56,56,0,0,1,2.45-13.21h3.3s-.87,9.3-1.1,14.34,1.07,13.12,1.07,13.12Zm7.87.31s-2.73-7.45-2.41-14.25a55.32,55.32,0,0,1,2.45-13.21h3.3s-.87,9.3-1.11,14.34a82.72,82.72,0,0,0,1.08,13.12Zm8.06-.24s-2.74-7.45-2.42-14.25A55.9,55.9,0,0,1,793.85,382h3.3s-.87,9.3-1.1,14.34,1.07,13.12,1.07,13.12Zm9.84-13.06c-.23,5,1.08,13.12,1.08,13.12h-3.3s-2.74-7.45-2.42-14.25a55.32,55.32,0,0,1,2.45-13.21h3.3S803.9,391.38,803.66,396.42Zm81.86,17.18a37.05,37.05,0,0,0-9-1.56c-4.1,0-9.87,2.86-9.87,2.86l-9.47-.35L853.87,411l34.42.82Zm3.41-4.23-35-.2,0-6.83,35.05.2Zm-.15-9.15-34.63-.2,0-6.42,34.64.2Zm.05-8.92-34.63-.19,0-6.43,34.63.2Zm-.59-7.89-33.94-.12,2.58-4.15,9.14.17s5.07,3.23,8.75,3.31a17.16,17.16,0,0,0,7.32-1.87l3.87.16Z" transform="translate(-223.74)"/><polygon class="cls-3" points="593.47 405.26 593.33 411.81 592.9 411.81 605.58 411.86 605.62 405.56 593.47 405.26"/><path class="cls-3" d="M829.32,411.86h0Z" transform="translate(-223.74)"/><path class="cls-3" d="M816,411.81h0Z" transform="translate(-223.74)"/></g></svg>