<svg id="Layer_1" data-name="Layer 1" xmlns="http://www.w3.org/2000/svg" viewBox="0 0 92.12 112.25"><defs><style>.cls-1{fill:#5978bb;}.cls-2{fill:#c2c9e2;}</style></defs><polygon class="cls-1" points="36.24 22.67 8.31 34 32.09 52.53 36.24 22.67"/><polygon class="cls-1" points="92.12 0 64.18 11.33 87.97 29.86 92.12 0"/><polygon class="cls-1" points="83.81 59.72 55.88 71.06 79.66 89.59 83.81 59.72"/><polygon class="cls-1" points="60.03 41.2 32.09 52.53 55.88 71.06 60.03 41.2"/><polygon class="cls-2" points="32.09 52.53 60.03 41.2 36.24 22.67 32.09 52.53"/><polygon class="cls-1" points="64.18 11.33 36.24 22.67 60.03 41.2 64.18 11.33"/><polygon class="cls-2" points="60.03 41.2 87.97 29.86 64.18 11.33 60.03 41.2"/><polygon class="cls-1" points="27.94 82.39 0 93.73 23.79 112.25 27.94 82.39"/><polygon class="cls-2" points="23.79 112.25 51.72 100.92 27.94 82.39 23.79 112.25"/><polygon class="cls-1" points="55.88 71.06 27.94 82.39 51.72 100.92 55.88 71.06"/><polygon class="cls-2" points="51.72 100.92 79.66 89.59 55.88 71.06 51.72 100.92"/><polygon class="cls-2" points="55.88 71.06 83.81 59.72 60.03 41.2 55.88 71.06"/></svg>